<svg width="123" height="50" viewBox="0 0 123 50" fill="none" xmlns="http://www.w3.org/2000/svg">
<path d="M9.58594 49.054C6.73394 49.054 4.50194 48.248 2.88994 46.636C1.31927 44.9827 0.533936 42.6474 0.533936 39.63V1.99602L10.3299 0.942017V39.258C10.3299 40.622 10.8879 41.304 12.0039 41.304C12.5826 41.304 13.1199 41.2007 13.6159 40.994L15.5379 47.938C13.7606 48.682 11.7766 49.054 9.58594 49.054Z" fill="black"/>
<path d="M33.2075 14.024C38.2501 14.024 42.1975 15.574 45.0494 18.674C47.9015 21.7327 49.3275 26.0314 49.3275 31.57C49.3275 35.0834 48.6661 38.1627 47.3435 40.808C46.0621 43.412 44.2021 45.4374 41.7635 46.884C39.3661 48.3307 36.5141 49.054 33.2075 49.054C28.2061 49.054 24.2588 47.5247 21.3655 44.466C18.5135 41.366 17.0875 37.0467 17.0875 31.508C17.0875 27.9947 17.7281 24.936 19.0095 22.332C20.3321 19.6867 22.1921 17.6407 24.5895 16.194C27.0281 14.7474 29.9008 14.024 33.2075 14.024ZM33.2075 21.216C31.2235 21.216 29.7355 22.0634 28.7435 23.758C27.7515 25.4114 27.2555 27.9947 27.2555 31.508C27.2555 35.104 27.7308 37.7287 28.6815 39.382C29.6735 41.0354 31.1821 41.862 33.2075 41.862C35.1914 41.862 36.6795 41.0354 37.6715 39.382C38.6635 37.6874 39.1595 35.0834 39.1595 31.57C39.1595 27.974 38.6635 25.3494 37.6715 23.696C36.7208 22.0427 35.2328 21.216 33.2075 21.216Z" fill="black"/>
<path d="M73.8165 14.024C77.7432 14.024 80.7605 15.574 82.8685 18.674C84.9765 21.7327 86.0305 26.0314 86.0305 31.57C86.0305 34.9594 85.4932 37.9767 84.4185 40.622C83.3852 43.2674 81.8765 45.334 79.8925 46.822C77.9498 48.31 75.6352 49.054 72.9485 49.054C71.1712 49.054 69.5385 48.682 68.0505 47.938C66.6038 47.194 65.3638 46.1607 64.3305 44.838L63.8345 48H55.1545V1.99602L64.9505 0.942017V18.426C65.9425 17.062 67.2031 15.9874 68.7325 15.202C70.3031 14.4167 71.9978 14.024 73.8165 14.024ZM70.0965 41.924C73.9405 41.924 75.8625 38.4727 75.8625 31.57C75.8625 27.6434 75.4078 24.936 74.4985 23.448C73.5891 21.96 72.2665 21.216 70.5305 21.216C68.3398 21.216 66.4798 22.4974 64.9505 25.06V38.762C65.5705 39.754 66.3145 40.5394 67.1825 41.118C68.0918 41.6554 69.0631 41.924 70.0965 41.924Z" fill="black"/>
<path d="M106.409 14.024C111.451 14.024 115.399 15.574 118.251 18.674C121.103 21.7327 122.529 26.0314 122.529 31.57C122.529 35.0834 121.867 38.1627 120.545 40.808C119.263 43.412 117.403 45.4374 114.965 46.884C112.567 48.3307 109.715 49.054 106.409 49.054C101.407 49.054 97.46 47.5247 94.5666 44.466C91.7146 41.366 90.2886 37.0467 90.2886 31.508C90.2886 27.9947 90.9293 24.936 92.2106 22.332C93.5333 19.6867 95.3933 17.6407 97.7906 16.194C100.229 14.7474 103.102 14.024 106.409 14.024ZM106.409 21.216C104.425 21.216 102.937 22.0634 101.945 23.758C100.953 25.4114 100.457 27.9947 100.457 31.508C100.457 35.104 100.932 37.7287 101.883 39.382C102.875 41.0354 104.383 41.862 106.409 41.862C108.393 41.862 109.881 41.0354 110.873 39.382C111.865 37.6874 112.361 35.0834 112.361 31.57C112.361 27.974 111.865 25.3494 110.873 23.696C109.922 22.0427 108.434 21.216 106.409 21.216Z" fill="black"/>
</svg>
